<svg xmlns="http://www.w3.org/2000/svg" width="192" height="192" viewBox="0 0 192 192">
  <g id="masked-icon" transform="translate(0 700)">
    <path id="Path_1" data-name="Path 1" d="M0-604v96H192V-700H0Zm191.726,0v95.726H.274V-699.726H191.726Z" transform="translate(0 0)"/>
    <path id="Path_2" data-name="Path 2" d="M127.959-651.388a1.921,1.921,0,0,0-.729.44c-.141.168-1.294,2.492-2.565,5.172a50.529,50.529,0,0,1-2.471,4.8c-.071-.042-1.012-.44-2.118-.921a43.513,43.513,0,0,0-19.436-3.036A42.684,42.684,0,0,0,86.4-641.776a8.356,8.356,0,0,1-2.071.754c-.047-.063-1.177-2.3-2.471-4.963-2.541-5.214-2.871-5.633-4.212-5.319-1.2.272-1.129-.209-3.953,21.8-1.2,9.382-1.2,9.612-1.318,34.155l-.118,23.287-9.553,5.235c-5.271,2.869-9.789,5.319-10.047,5.424-.259.126-2.8.859-5.647,1.633s-5.835,1.7-6.635,2.01c-5.435,2.157-10.071,6.953-11.6,11.957-.659,2.22-1.459,6.617-1.271,7.141.376,1.131,1.106,1.508,7.153,3.665A204.572,204.572,0,0,0,91.37-523.4c4.988.335,18.989.335,24,0a204.611,204.611,0,0,0,55.955-11.35c6.377-2.262,7.106-2.6,7.624-3.581.4-.712.4-.838-.165-3.79a31.936,31.936,0,0,0-1.153-4.565,19.75,19.75,0,0,0-8.565-9.738c-2.282-1.3-3.082-1.592-9.647-3.476l-5.741-1.633-7.906-4.335c-4.377-2.387-8.753-4.8-9.741-5.382l-1.835-1.026v-22.973c0-26.072.024-25.695-2.118-41.38-.212-1.424-.447-3.33-.941-7.015-.894-6.869-.918-6.994-1.341-7.35A1.842,1.842,0,0,0,127.959-651.388Zm-28.73,63.724c3.012,2.01,3.435,2.241,4.188,2.241a14.806,14.806,0,0,0,3.6-1.989l3.035-1.989H126.43v2.869c0,3.225-.212,4.063-1.553,6.408-2.306,4.063-7.177,8.712-12.212,11.706-2.471,1.445-3.506,1.675-8.588,1.78-5.083.126-7.059-.147-9.012-1.215-5.13-2.785-10.518-7.727-12.942-11.853-1.577-2.7-1.812-3.539-1.812-6.806v-2.89H96.617Zm-37.86,31.056c4.565.733,4.988.88,3.412,1.256-.588.126-1.906.44-2.941.691-1.035.272-2.824.691-4,.963-1.153.272-3.082.733-4.259,1.026-2.541.628-4.306,1.068-6.565,1.592-3.812.9-4.4,1.068-5.341,1.591a17.609,17.609,0,0,0-2.353,1.7,7.271,7.271,0,0,1-4.141,1.948h-.753l.494-.9A15.66,15.66,0,0,1,42-553.09a48.3,48.3,0,0,1,5.953-1.948c2.965-.8,5.788-1.571,6.588-1.822C55.628-557.194,58.31-557.09,61.369-556.608Z" transform="translate(-7.4 -13.062)"/>
  </g>
</svg>
