<?xml version="1.0" standalone="no"?>
<!DOCTYPE svg PUBLIC "-//W3C//DTD SVG 20010904//EN"
 "http://www.w3.org/TR/2001/REC-SVG-20010904/DTD/svg10.dtd">
<svg version="1.0" xmlns="http://www.w3.org/2000/svg"
 width="700.000000pt" height="700.000000pt" viewBox="0 0 700.000000 700.000000"
 preserveAspectRatio="xMidYMid meet">
<metadata>
Created by potrace 1.14, written by Peter Selinger 2001-2017
</metadata>
<g transform="translate(0.000000,700.000000) scale(0.100000,-0.100000)"
fill="#000000" stroke="none">
<path d="M0 3500 l0 -3500 3500 0 3500 0 0 3500 0 3500 -3500 0 -3500 0 0
-3500z m6990 0 l0 -3490 -3490 0 -3490 0 0 3490 0 3490 3490 0 3490 0 0 -3490z"/>
<path d="M4545 6510 c-12 -4 -25 -14 -31 -21 -6 -8 -55 -119 -109 -247 -55
-128 -102 -231 -105 -229 -3 2 -43 21 -90 44 -240 115 -540 167 -826 145 -240
-19 -435 -68 -605 -151 -46 -23 -85 -39 -88 -36 -2 3 -50 110 -105 237 -108
249 -122 269 -179 254 -51 -13 -48 10 -168 -1041 -51 -448 -51 -459 -56 -1631
l-5 -1112 -406 -250 c-224 -137 -416 -254 -427 -259 -11 -6 -119 -41 -240 -78
-121 -37 -248 -81 -282 -96 -231 -103 -428 -332 -493 -571 -28 -106 -62 -316
-54 -341 16 -54 47 -72 304 -175 779 -313 1538 -487 2410 -554 212 -16 807
-16 1020 0 855 65 1615 238 2378 542 271 108 302 124 324 171 17 34 17 40 -7
181 -13 80 -35 178 -49 218 -67 191 -196 356 -364 465 -97 62 -131 76 -410
166 l-244 78 -336 207 c-186 114 -372 229 -414 257 l-78 49 0 1097 c0 1245 1
1227 -90 1976 -9 68 -19 159 -40 335 -38 328 -39 334 -57 351 -23 22 -53 30
-78 19z m-1221 -3043 c128 -96 146 -107 178 -107 15 0 76 38 153 95 l129 95
348 0 348 0 0 -137 c0 -154 -9 -194 -66 -306 -98 -194 -305 -416 -519 -559
-105 -69 -149 -80 -365 -85 -216 -6 -300 7 -383 58 -218 133 -447 369 -550
566 -67 129 -77 169 -77 325 l0 138 347 0 346 0 111 -83z m-1609 -1483 c194
-35 212 -42 145 -60 -25 -6 -81 -21 -125 -33 -44 -13 -120 -33 -170 -46 -49
-13 -131 -35 -181 -49 -108 -30 -183 -51 -279 -76 -162 -43 -187 -51 -227 -76
-24 -15 -69 -51 -100 -81 -63 -59 -126 -92 -176 -93 l-32 0 21 43 c65 128 179
244 301 303 55 27 156 64 253 93 126 38 246 75 280 87 46 16 160 11 290 -12z"/>
</g>
</svg>
