<svg xmlns="http://www.w3.org/2000/svg" width="512" height="512" viewBox="0 0 512 512">
  <g id="masked-icon" transform="translate(0 700)">
    <path id="Path_1" data-name="Path 1" d="M0-444v256H512V-700H0Zm511.269,0v255.269H.731V-699.269H511.269Z" transform="translate(0 0)"/>
    <path id="Path_2" data-name="Path 2" d="M339.841-651.132a5.9,5.9,0,0,0-2.268,1.536c-.439.585-4.023,8.705-7.973,18.069-4.023,9.364-7.461,16.9-7.681,16.752s-3.145-1.536-6.583-3.219c-17.556-8.413-39.5-12.217-60.421-10.607-17.556,1.39-31.82,4.974-44.255,11.046-3.365,1.683-6.218,2.853-6.437,2.634-.146-.219-3.657-8.047-7.681-17.337-7.9-18.215-8.924-19.678-13.094-18.581-3.731.951-3.511-.732-12.289,76.152-3.731,32.772-3.731,33.577-4.1,119.312l-.366,81.346L137-355.741c-16.385,10.022-30.43,18.581-31.235,18.947-.8.439-8.7,3-17.556,5.706s-18.141,5.925-20.628,7.023c-16.9,7.535-31.308,24.287-36.062,41.77-2.048,7.754-4.535,23.116-3.95,24.945,1.17,3.95,3.438,5.267,22.237,12.8,56.983,22.9,112.5,35.625,176.289,40.527,15.508,1.17,59.031,1.17,74.612,0,62.542-4.755,118.135-17.41,173.948-39.649,19.823-7.9,22.091-9.071,23.7-12.509,1.244-2.487,1.244-2.926-.512-13.241a122.926,122.926,0,0,0-3.584-15.947,67.155,67.155,0,0,0-26.626-34.016c-7.1-4.535-9.582-5.56-29.991-12.143l-17.848-5.706-24.578-15.143c-13.606-8.339-27.211-16.752-30.284-18.8l-5.706-3.585v-80.249c0-91.075.073-89.759-6.583-144.55-.658-4.974-1.39-11.631-2.926-24.506-2.78-23.994-2.853-24.433-4.169-25.677A5.264,5.264,0,0,0,339.841-651.132Zm-89.315,222.6c9.363,7.023,10.68,7.827,13.021,7.827,1.1,0,5.559-2.78,11.192-6.949l9.436-6.95h50.912v10.022c0,11.266-.658,14.192-4.828,22.385-7.169,14.192-22.31,30.432-37.964,40.892-7.681,5.048-10.9,5.852-26.7,6.218-15.8.439-21.945-.512-28.016-4.243-15.946-9.729-32.7-26.993-40.232-41.4-4.9-9.437-5.632-12.363-5.632-23.775v-10.1h50.692Zm-117.7,108.486c14.191,2.56,15.508,3.072,10.607,4.389-1.829.439-5.925,1.536-9.144,2.414-3.219.951-8.778,2.414-12.435,3.365-3.584.951-9.582,2.56-13.24,3.585-7.9,2.195-13.386,3.731-20.409,5.56-11.85,3.146-13.679,3.731-16.6,5.56a55.382,55.382,0,0,0-7.315,5.925c-4.608,4.316-9.217,6.73-12.874,6.8H49.074l1.536-3.146c4.755-9.364,13.094-17.849,22.018-22.165a138.876,138.876,0,0,1,18.507-6.8c9.217-2.78,17.995-5.486,20.482-6.364C114.981-322.09,123.32-321.725,132.829-320.042Z" transform="translate(-7.4 -13.062)"/>
  </g>
</svg>
